M48
; DRILL file {KiCad (5.1.9)-1} date 03/23/21 22:35:49
; FORMAT={-:-/ absolute / inch / decimal}
; #@! TF.CreationDate,2021-03-23T22:35:49-04:00
; #@! TF.GenerationSoftware,Kicad,Pcbnew,(5.1.9)-1
; #@! TF.FileFunction,Plated,1,2,PTH
FMAT,2
INCH
T1C0.0276
T2C0.0315
T3C0.0354
T4C0.0394
%
G90
G05
T1
X4.55Y-2.5
X4.55Y-3.25
X4.85Y-2.5
X4.85Y-3.25
T2
X4.75Y-2.75
X4.75Y-2.85
X4.75Y-2.95
X4.75Y-3.05
X5.05Y-2.4661
X5.05Y-2.6
X5.05Y-2.75
X5.05Y-2.85
X5.05Y-2.95
X5.05Y-3.05
T3
X4.55Y-2.7
X4.55Y-2.8
X4.55Y-2.95
X4.55Y-3.05
T4
X4.75Y-2.3
X4.85Y-2.3
T0
M30
