%FSLAX45Y45*%
G04 Gerber Fmt 4.5, Leading zero omitted, Abs format (unit mm)*
G04 Created by KiCad (PCBNEW (5.1.9)-1) date 2021-03-23 22:35:51*
%MOMM*%
%LPD*%
G01*
G04 APERTURE LIST*
%TA.AperFunction,Profile*%
%ADD10C,0.050000*%
%TD*%
%ADD11C,0.200000*%
%ADD12C,0.300000*%
G04 APERTURE END LIST*
D10*
X13335000Y-5588000D02*
X11176000Y-5588000D01*
X13335000Y-8636000D02*
X13335000Y-5588000D01*
X11176000Y-8636000D02*
X13335000Y-8636000D01*
X11176000Y-5588000D02*
X11176000Y-8636000D01*
D11*
D12*
X11459928Y-9104214D02*
X11459928Y-8804214D01*
X11531357Y-8804214D01*
X11574214Y-8818500D01*
X11602786Y-8847072D01*
X11617071Y-8875643D01*
X11631357Y-8932786D01*
X11631357Y-8975643D01*
X11617071Y-9032786D01*
X11602786Y-9061357D01*
X11574214Y-9089929D01*
X11531357Y-9104214D01*
X11459928Y-9104214D01*
X11759928Y-9104214D02*
X11759928Y-8904214D01*
X11759928Y-8961357D02*
X11774214Y-8932786D01*
X11788500Y-8918500D01*
X11817071Y-8904214D01*
X11845643Y-8904214D01*
X11945643Y-9104214D02*
X11945643Y-8904214D01*
X11945643Y-8804214D02*
X11931357Y-8818500D01*
X11945643Y-8832786D01*
X11959928Y-8818500D01*
X11945643Y-8804214D01*
X11945643Y-8832786D01*
X12131357Y-9104214D02*
X12102786Y-9089929D01*
X12088500Y-9061357D01*
X12088500Y-8804214D01*
X12288500Y-9104214D02*
X12259928Y-9089929D01*
X12245643Y-9061357D01*
X12245643Y-8804214D01*
X12631357Y-9104214D02*
X12631357Y-8804214D01*
X12731357Y-9018500D01*
X12831357Y-8804214D01*
X12831357Y-9104214D01*
X13102786Y-9104214D02*
X13102786Y-8947072D01*
X13088500Y-8918500D01*
X13059928Y-8904214D01*
X13002786Y-8904214D01*
X12974214Y-8918500D01*
X13102786Y-9089929D02*
X13074214Y-9104214D01*
X13002786Y-9104214D01*
X12974214Y-9089929D01*
X12959928Y-9061357D01*
X12959928Y-9032786D01*
X12974214Y-9004214D01*
X13002786Y-8989929D01*
X13074214Y-8989929D01*
X13102786Y-8975643D01*
X13245643Y-8904214D02*
X13245643Y-9204214D01*
X13245643Y-8918500D02*
X13274214Y-8904214D01*
X13331357Y-8904214D01*
X13359928Y-8918500D01*
X13374214Y-8932786D01*
X13388500Y-8961357D01*
X13388500Y-9047072D01*
X13374214Y-9075643D01*
X13359928Y-9089929D01*
X13331357Y-9104214D01*
X13274214Y-9104214D01*
X13245643Y-9089929D01*
X13517071Y-9075643D02*
X13531357Y-9089929D01*
X13517071Y-9104214D01*
X13502786Y-9089929D01*
X13517071Y-9075643D01*
X13517071Y-9104214D01*
X13517071Y-8918500D02*
X13531357Y-8932786D01*
X13517071Y-8947072D01*
X13502786Y-8932786D01*
X13517071Y-8918500D01*
X13517071Y-8947072D01*
M02*
