%TF.GenerationSoftware,KiCad,Pcbnew,(5.1.9)-1*%
%TF.CreationDate,2021-03-23T22:36:06-04:00*%
%TF.ProjectId,Automated lighting,4175746f-6d61-4746-9564-206c69676874,rev?*%
%TF.SameCoordinates,Original*%
%TF.FileFunction,Copper,L1,Top*%
%TF.FilePolarity,Positive*%
%FSLAX46Y46*%
G04 Gerber Fmt 4.6, Leading zero omitted, Abs format (unit mm)*
G04 Created by KiCad (PCBNEW (5.1.9)-1) date 2021-03-23 22:36:06*
%MOMM*%
%LPD*%
G01*
G04 APERTURE LIST*
%TA.AperFunction,ComponentPad*%
%ADD10O,1.600000X1.600000*%
%TD*%
%TA.AperFunction,ComponentPad*%
%ADD11R,1.600000X1.600000*%
%TD*%
%TA.AperFunction,ComponentPad*%
%ADD12O,1.400000X1.400000*%
%TD*%
%TA.AperFunction,ComponentPad*%
%ADD13C,1.400000*%
%TD*%
%TA.AperFunction,ComponentPad*%
%ADD14C,1.500000*%
%TD*%
%TA.AperFunction,ComponentPad*%
%ADD15C,1.800000*%
%TD*%
%TA.AperFunction,ComponentPad*%
%ADD16R,1.800000X1.800000*%
%TD*%
%TA.AperFunction,ComponentPad*%
%ADD17O,1.700000X1.700000*%
%TD*%
%TA.AperFunction,ComponentPad*%
%ADD18R,1.700000X1.700000*%
%TD*%
%TA.AperFunction,Conductor*%
%ADD19C,0.500000*%
%TD*%
G04 APERTURE END LIST*
D10*
%TO.P,U1,8*%
%TO.N,Net-(BT1-Pad1)*%
X128270000Y-69850000D03*
%TO.P,U1,4*%
X120650000Y-77470000D03*
%TO.P,U1,7*%
%TO.N,Net-(U1-Pad7)*%
X128270000Y-72390000D03*
%TO.P,U1,3*%
%TO.N,Net-(D1-Pad1)*%
X120650000Y-74930000D03*
%TO.P,U1,6*%
%TO.N,Net-(BT1-Pad1)*%
X128270000Y-74930000D03*
%TO.P,U1,2*%
%TO.N,Net-(R1-Pad2)*%
X120650000Y-72390000D03*
%TO.P,U1,5*%
%TO.N,Net-(U1-Pad5)*%
X128270000Y-77470000D03*
D11*
%TO.P,U1,1*%
%TO.N,GND*%
X120650000Y-69850000D03*
%TD*%
D12*
%TO.P,R3,2*%
%TO.N,Net-(D1-Pad2)*%
X115570000Y-82550000D03*
D13*
%TO.P,R3,1*%
%TO.N,Net-(BT1-Pad1)*%
X123190000Y-82550000D03*
%TD*%
D12*
%TO.P,R2,2*%
%TO.N,GND*%
X115570000Y-63500000D03*
D13*
%TO.P,R2,1*%
%TO.N,Net-(R1-Pad2)*%
X123190000Y-63500000D03*
%TD*%
D14*
%TO.P,R1,2*%
%TO.N,Net-(R1-Pad2)*%
X128270000Y-62640000D03*
%TO.P,R1,1*%
%TO.N,Net-(BT1-Pad1)*%
X128270000Y-66040000D03*
%TD*%
D15*
%TO.P,D2,2*%
%TO.N,Net-(D1-Pad1)*%
X115570000Y-71120000D03*
D16*
%TO.P,D2,1*%
%TO.N,GND*%
X115570000Y-68580000D03*
%TD*%
D15*
%TO.P,D1,2*%
%TO.N,Net-(D1-Pad2)*%
X115570000Y-77470000D03*
D16*
%TO.P,D1,1*%
%TO.N,Net-(D1-Pad1)*%
X115570000Y-74930000D03*
%TD*%
D17*
%TO.P,BT1,2*%
%TO.N,GND*%
X120650000Y-58420000D03*
D18*
%TO.P,BT1,1*%
%TO.N,Net-(BT1-Pad1)*%
X123190000Y-58420000D03*
%TD*%
D19*
%TO.N,GND*%
X119380000Y-68580000D02*
X120650000Y-69850000D01*
X115570000Y-68580000D02*
X118110000Y-68580000D01*
X118110000Y-68580000D02*
X119380000Y-68580000D01*
X115570000Y-68580000D02*
X115570000Y-63500000D01*
X115570000Y-63500000D02*
X115570000Y-62230000D01*
X119380000Y-58420000D02*
X120650000Y-58420000D01*
X115570000Y-62230000D02*
X119380000Y-58420000D01*
%TO.N,Net-(BT1-Pad1)*%
X123190000Y-80010000D02*
X120650000Y-77470000D01*
X123190000Y-82550000D02*
X123190000Y-80010000D01*
X128270000Y-74930000D02*
X123190000Y-80010000D01*
X129520001Y-71100001D02*
X128270000Y-69850000D01*
X129520001Y-73679999D02*
X129520001Y-71100001D01*
X128270000Y-74930000D02*
X129520001Y-73679999D01*
X123190000Y-58420000D02*
X129540000Y-58420000D01*
X129540000Y-58420000D02*
X132080000Y-60960000D01*
X132080000Y-60960000D02*
X132080000Y-66040000D01*
X132080000Y-66040000D02*
X128270000Y-66040000D01*
X128270000Y-69850000D02*
X128270000Y-66040000D01*
%TO.N,Net-(D1-Pad2)*%
X115570000Y-77470000D02*
X115570000Y-82550000D01*
%TO.N,Net-(D1-Pad1)*%
X115570000Y-74930000D02*
X115570000Y-71120000D01*
X115570000Y-74930000D02*
X120650000Y-74930000D01*
%TO.N,Net-(R1-Pad2)*%
X123600000Y-63090000D02*
X123190000Y-63500000D01*
X120650000Y-72390000D02*
X121920000Y-72390000D01*
X121920000Y-72390000D02*
X123190000Y-71120000D01*
X123190000Y-71120000D02*
X123190000Y-63500000D01*
X127410000Y-63500000D02*
X128270000Y-62640000D01*
X123190000Y-63500000D02*
X127410000Y-63500000D01*
%TD*%
M02*
