%TF.GenerationSoftware,KiCad,Pcbnew,(5.1.9)-1*%
%TF.CreationDate,2021-03-23T22:36:06-04:00*%
%TF.ProjectId,Automated lighting,4175746f-6d61-4746-9564-206c69676874,rev?*%
%TF.SameCoordinates,Original*%
%TF.FileFunction,Other,Fab,Top*%
%FSLAX46Y46*%
G04 Gerber Fmt 4.6, Leading zero omitted, Abs format (unit mm)*
G04 Created by KiCad (PCBNEW (5.1.9)-1) date 2021-03-23 22:36:06*
%MOMM*%
%LPD*%
G01*
G04 APERTURE LIST*
%ADD10C,0.100000*%
%ADD11C,0.150000*%
%ADD12C,0.108000*%
G04 APERTURE END LIST*
D10*
%TO.C,U1*%
X121285000Y-69580000D02*
X122285000Y-68580000D01*
X121285000Y-78740000D02*
X121285000Y-69580000D01*
X127635000Y-78740000D02*
X121285000Y-78740000D01*
X127635000Y-68580000D02*
X127635000Y-78740000D01*
X122285000Y-68580000D02*
X127635000Y-68580000D01*
%TO.C,R3*%
X115570000Y-82550000D02*
X117580000Y-82550000D01*
X123190000Y-82550000D02*
X121180000Y-82550000D01*
X117580000Y-83350000D02*
X121180000Y-83350000D01*
X117580000Y-81750000D02*
X117580000Y-83350000D01*
X121180000Y-81750000D02*
X117580000Y-81750000D01*
X121180000Y-83350000D02*
X121180000Y-81750000D01*
%TO.C,R2*%
X115570000Y-63500000D02*
X117580000Y-63500000D01*
X123190000Y-63500000D02*
X121180000Y-63500000D01*
X117580000Y-64300000D02*
X121180000Y-64300000D01*
X117580000Y-62700000D02*
X117580000Y-64300000D01*
X121180000Y-62700000D02*
X117580000Y-62700000D01*
X121180000Y-64300000D02*
X121180000Y-62700000D01*
%TO.C,R1*%
X126170000Y-65840000D02*
X126170000Y-62840000D01*
X130370000Y-62840000D02*
X130370000Y-65840000D01*
X130070000Y-65240000D02*
X130070000Y-63440000D01*
X129470000Y-65240000D02*
X130070000Y-65240000D01*
X129470000Y-63440000D02*
X129470000Y-65240000D01*
X128870000Y-63440000D02*
X129470000Y-63440000D01*
X128270000Y-65040000D02*
X128870000Y-65040000D01*
X127070000Y-65240000D02*
X127670000Y-65240000D01*
X127070000Y-63440000D02*
X127070000Y-65240000D01*
X126470000Y-63440000D02*
X127070000Y-63440000D01*
X126470000Y-65240000D02*
X126470000Y-63440000D01*
X128870000Y-63440000D02*
X128870000Y-65040000D01*
X127670000Y-63740000D02*
X127670000Y-65240000D01*
X128270000Y-63740000D02*
X127670000Y-63740000D01*
X128270000Y-65040000D02*
X128270000Y-63740000D01*
X126168029Y-65837237D02*
G75*
G03*
X130370000Y-65840000I2101971J1497237D01*
G01*
X130371971Y-62842763D02*
G75*
G03*
X126170000Y-62840000I-2101971J-1497237D01*
G01*
%TO.C,D2*%
X116736190Y-68350000D02*
X114403810Y-68350000D01*
X117070000Y-69850000D02*
G75*
G03*
X117070000Y-69850000I-1500000J0D01*
G01*
X114404524Y-68349445D02*
G75*
G03*
X116736190Y-68350000I1165476J-1500555D01*
G01*
%TO.C,D1*%
X116736190Y-74700000D02*
X114403810Y-74700000D01*
X117070000Y-76200000D02*
G75*
G03*
X117070000Y-76200000I-1500000J0D01*
G01*
X114404524Y-74699445D02*
G75*
G03*
X116736190Y-74700000I1165476J-1500555D01*
G01*
%TO.C,BT1*%
X123825000Y-57150000D02*
X124460000Y-57785000D01*
X119380000Y-57150000D02*
X123825000Y-57150000D01*
X119380000Y-59690000D02*
X119380000Y-57150000D01*
X124460000Y-59690000D02*
X119380000Y-59690000D01*
X124460000Y-57785000D02*
X124460000Y-59690000D01*
%TD*%
%TO.C,U1*%
D11*
X121793333Y-80252380D02*
X121793333Y-79252380D01*
X122364761Y-80252380D01*
X122364761Y-79252380D01*
X122840952Y-79728571D02*
X123174285Y-79728571D01*
X123317142Y-80252380D02*
X122840952Y-80252380D01*
X122840952Y-79252380D01*
X123317142Y-79252380D01*
X124221904Y-79252380D02*
X123745714Y-79252380D01*
X123698095Y-79728571D01*
X123745714Y-79680952D01*
X123840952Y-79633333D01*
X124079047Y-79633333D01*
X124174285Y-79680952D01*
X124221904Y-79728571D01*
X124269523Y-79823809D01*
X124269523Y-80061904D01*
X124221904Y-80157142D01*
X124174285Y-80204761D01*
X124079047Y-80252380D01*
X123840952Y-80252380D01*
X123745714Y-80204761D01*
X123698095Y-80157142D01*
X125174285Y-79252380D02*
X124698095Y-79252380D01*
X124650476Y-79728571D01*
X124698095Y-79680952D01*
X124793333Y-79633333D01*
X125031428Y-79633333D01*
X125126666Y-79680952D01*
X125174285Y-79728571D01*
X125221904Y-79823809D01*
X125221904Y-80061904D01*
X125174285Y-80157142D01*
X125126666Y-80204761D01*
X125031428Y-80252380D01*
X124793333Y-80252380D01*
X124698095Y-80204761D01*
X124650476Y-80157142D01*
X126126666Y-79252380D02*
X125650476Y-79252380D01*
X125602857Y-79728571D01*
X125650476Y-79680952D01*
X125745714Y-79633333D01*
X125983809Y-79633333D01*
X126079047Y-79680952D01*
X126126666Y-79728571D01*
X126174285Y-79823809D01*
X126174285Y-80061904D01*
X126126666Y-80157142D01*
X126079047Y-80204761D01*
X125983809Y-80252380D01*
X125745714Y-80252380D01*
X125650476Y-80204761D01*
X125602857Y-80157142D01*
X126602857Y-80252380D02*
X126602857Y-79252380D01*
X126983809Y-79252380D01*
X127079047Y-79300000D01*
X127126666Y-79347619D01*
X127174285Y-79442857D01*
X127174285Y-79585714D01*
X127126666Y-79680952D01*
X127079047Y-79728571D01*
X126983809Y-79776190D01*
X126602857Y-79776190D01*
X123698095Y-73112380D02*
X123698095Y-73921904D01*
X123745714Y-74017142D01*
X123793333Y-74064761D01*
X123888571Y-74112380D01*
X124079047Y-74112380D01*
X124174285Y-74064761D01*
X124221904Y-74017142D01*
X124269523Y-73921904D01*
X124269523Y-73112380D01*
X125269523Y-74112380D02*
X124698095Y-74112380D01*
X124983809Y-74112380D02*
X124983809Y-73112380D01*
X124888571Y-73255238D01*
X124793333Y-73350476D01*
X124698095Y-73398095D01*
%TO.C,R3*%
X117641904Y-80082380D02*
X118260952Y-80082380D01*
X117927619Y-80463333D01*
X118070476Y-80463333D01*
X118165714Y-80510952D01*
X118213333Y-80558571D01*
X118260952Y-80653809D01*
X118260952Y-80891904D01*
X118213333Y-80987142D01*
X118165714Y-81034761D01*
X118070476Y-81082380D01*
X117784761Y-81082380D01*
X117689523Y-81034761D01*
X117641904Y-80987142D01*
X118594285Y-80082380D02*
X119213333Y-80082380D01*
X118880000Y-80463333D01*
X119022857Y-80463333D01*
X119118095Y-80510952D01*
X119165714Y-80558571D01*
X119213333Y-80653809D01*
X119213333Y-80891904D01*
X119165714Y-80987142D01*
X119118095Y-81034761D01*
X119022857Y-81082380D01*
X118737142Y-81082380D01*
X118641904Y-81034761D01*
X118594285Y-80987142D01*
X119832380Y-80082380D02*
X119927619Y-80082380D01*
X120022857Y-80130000D01*
X120070476Y-80177619D01*
X120118095Y-80272857D01*
X120165714Y-80463333D01*
X120165714Y-80701428D01*
X120118095Y-80891904D01*
X120070476Y-80987142D01*
X120022857Y-81034761D01*
X119927619Y-81082380D01*
X119832380Y-81082380D01*
X119737142Y-81034761D01*
X119689523Y-80987142D01*
X119641904Y-80891904D01*
X119594285Y-80701428D01*
X119594285Y-80463333D01*
X119641904Y-80272857D01*
X119689523Y-80177619D01*
X119737142Y-80130000D01*
X119832380Y-80082380D01*
X120594285Y-80558571D02*
X120927619Y-80558571D01*
X121070476Y-81082380D02*
X120594285Y-81082380D01*
X120594285Y-80082380D01*
X121070476Y-80082380D01*
D12*
X119260000Y-82875714D02*
X119020000Y-82532857D01*
X118848571Y-82875714D02*
X118848571Y-82155714D01*
X119122857Y-82155714D01*
X119191428Y-82190000D01*
X119225714Y-82224285D01*
X119260000Y-82292857D01*
X119260000Y-82395714D01*
X119225714Y-82464285D01*
X119191428Y-82498571D01*
X119122857Y-82532857D01*
X118848571Y-82532857D01*
X119500000Y-82155714D02*
X119945714Y-82155714D01*
X119705714Y-82430000D01*
X119808571Y-82430000D01*
X119877142Y-82464285D01*
X119911428Y-82498571D01*
X119945714Y-82567142D01*
X119945714Y-82738571D01*
X119911428Y-82807142D01*
X119877142Y-82841428D01*
X119808571Y-82875714D01*
X119602857Y-82875714D01*
X119534285Y-82841428D01*
X119500000Y-82807142D01*
%TO.C,R2*%
D11*
X118594285Y-61365714D02*
X118594285Y-62032380D01*
X118356190Y-60984761D02*
X118118095Y-61699047D01*
X118737142Y-61699047D01*
X119022857Y-61032380D02*
X119689523Y-61032380D01*
X119260952Y-62032380D01*
X120070476Y-62032380D02*
X120070476Y-61032380D01*
X120641904Y-62032380D02*
X120213333Y-61460952D01*
X120641904Y-61032380D02*
X120070476Y-61603809D01*
D12*
X119260000Y-63825714D02*
X119020000Y-63482857D01*
X118848571Y-63825714D02*
X118848571Y-63105714D01*
X119122857Y-63105714D01*
X119191428Y-63140000D01*
X119225714Y-63174285D01*
X119260000Y-63242857D01*
X119260000Y-63345714D01*
X119225714Y-63414285D01*
X119191428Y-63448571D01*
X119122857Y-63482857D01*
X118848571Y-63482857D01*
X119534285Y-63174285D02*
X119568571Y-63140000D01*
X119637142Y-63105714D01*
X119808571Y-63105714D01*
X119877142Y-63140000D01*
X119911428Y-63174285D01*
X119945714Y-63242857D01*
X119945714Y-63311428D01*
X119911428Y-63414285D01*
X119500000Y-63825714D01*
X119945714Y-63825714D01*
%TO.C,R1*%
D11*
X131722380Y-66182857D02*
X131722380Y-66659047D01*
X130722380Y-66659047D01*
X131722380Y-65849523D02*
X130722380Y-65849523D01*
X130722380Y-65611428D01*
X130770000Y-65468571D01*
X130865238Y-65373333D01*
X130960476Y-65325714D01*
X131150952Y-65278095D01*
X131293809Y-65278095D01*
X131484285Y-65325714D01*
X131579523Y-65373333D01*
X131674761Y-65468571D01*
X131722380Y-65611428D01*
X131722380Y-65849523D01*
X131722380Y-64278095D02*
X131246190Y-64611428D01*
X131722380Y-64849523D02*
X130722380Y-64849523D01*
X130722380Y-64468571D01*
X130770000Y-64373333D01*
X130817619Y-64325714D01*
X130912857Y-64278095D01*
X131055714Y-64278095D01*
X131150952Y-64325714D01*
X131198571Y-64373333D01*
X131246190Y-64468571D01*
X131246190Y-64849523D01*
X130722380Y-63659047D02*
X130722380Y-63563809D01*
X130770000Y-63468571D01*
X130817619Y-63420952D01*
X130912857Y-63373333D01*
X131103333Y-63325714D01*
X131341428Y-63325714D01*
X131531904Y-63373333D01*
X131627142Y-63420952D01*
X131674761Y-63468571D01*
X131722380Y-63563809D01*
X131722380Y-63659047D01*
X131674761Y-63754285D01*
X131627142Y-63801904D01*
X131531904Y-63849523D01*
X131341428Y-63897142D01*
X131103333Y-63897142D01*
X130912857Y-63849523D01*
X130817619Y-63801904D01*
X130770000Y-63754285D01*
X130722380Y-63659047D01*
X130722380Y-62992380D02*
X130722380Y-62325714D01*
X131722380Y-62754285D01*
X125822380Y-64506666D02*
X125346190Y-64840000D01*
X125822380Y-65078095D02*
X124822380Y-65078095D01*
X124822380Y-64697142D01*
X124870000Y-64601904D01*
X124917619Y-64554285D01*
X125012857Y-64506666D01*
X125155714Y-64506666D01*
X125250952Y-64554285D01*
X125298571Y-64601904D01*
X125346190Y-64697142D01*
X125346190Y-65078095D01*
X125822380Y-63554285D02*
X125822380Y-64125714D01*
X125822380Y-63840000D02*
X124822380Y-63840000D01*
X124965238Y-63935238D01*
X125060476Y-64030476D01*
X125108095Y-64125714D01*
%TO.C,D2*%
X113062380Y-70492857D02*
X113062380Y-70969047D01*
X112062380Y-70969047D01*
X112538571Y-70159523D02*
X112538571Y-69826190D01*
X113062380Y-69683333D02*
X113062380Y-70159523D01*
X112062380Y-70159523D01*
X112062380Y-69683333D01*
X113062380Y-69254761D02*
X112062380Y-69254761D01*
X112062380Y-69016666D01*
X112110000Y-68873809D01*
X112205238Y-68778571D01*
X112300476Y-68730952D01*
X112490952Y-68683333D01*
X112633809Y-68683333D01*
X112824285Y-68730952D01*
X112919523Y-68778571D01*
X113014761Y-68873809D01*
X113062380Y-69016666D01*
X113062380Y-69254761D01*
%TO.C,D1*%
X113062380Y-76842857D02*
X113062380Y-77319047D01*
X112062380Y-77319047D01*
X112538571Y-76509523D02*
X112538571Y-76176190D01*
X113062380Y-76033333D02*
X113062380Y-76509523D01*
X112062380Y-76509523D01*
X112062380Y-76033333D01*
X113062380Y-75604761D02*
X112062380Y-75604761D01*
X112062380Y-75366666D01*
X112110000Y-75223809D01*
X112205238Y-75128571D01*
X112300476Y-75080952D01*
X112490952Y-75033333D01*
X112633809Y-75033333D01*
X112824285Y-75080952D01*
X112919523Y-75128571D01*
X113014761Y-75223809D01*
X113062380Y-75366666D01*
X113062380Y-75604761D01*
%TO.C,BT1*%
X118772380Y-59039047D02*
X118772380Y-58848571D01*
X118724761Y-58753333D01*
X118677142Y-58705714D01*
X118534285Y-58610476D01*
X118343809Y-58562857D01*
X117962857Y-58562857D01*
X117867619Y-58610476D01*
X117820000Y-58658095D01*
X117772380Y-58753333D01*
X117772380Y-58943809D01*
X117820000Y-59039047D01*
X117867619Y-59086666D01*
X117962857Y-59134285D01*
X118200952Y-59134285D01*
X118296190Y-59086666D01*
X118343809Y-59039047D01*
X118391428Y-58943809D01*
X118391428Y-58753333D01*
X118343809Y-58658095D01*
X118296190Y-58610476D01*
X118200952Y-58562857D01*
X117772380Y-58277142D02*
X118772380Y-57943809D01*
X117772380Y-57610476D01*
X121134285Y-58348571D02*
X121277142Y-58396190D01*
X121324761Y-58443809D01*
X121372380Y-58539047D01*
X121372380Y-58681904D01*
X121324761Y-58777142D01*
X121277142Y-58824761D01*
X121181904Y-58872380D01*
X120800952Y-58872380D01*
X120800952Y-57872380D01*
X121134285Y-57872380D01*
X121229523Y-57920000D01*
X121277142Y-57967619D01*
X121324761Y-58062857D01*
X121324761Y-58158095D01*
X121277142Y-58253333D01*
X121229523Y-58300952D01*
X121134285Y-58348571D01*
X120800952Y-58348571D01*
X121658095Y-57872380D02*
X122229523Y-57872380D01*
X121943809Y-58872380D02*
X121943809Y-57872380D01*
X123086666Y-58872380D02*
X122515238Y-58872380D01*
X122800952Y-58872380D02*
X122800952Y-57872380D01*
X122705714Y-58015238D01*
X122610476Y-58110476D01*
X122515238Y-58158095D01*
%TD*%
M02*
